HIERARCHY
ROOT Hips
{
	OFFSET 0.0000 0.0000 0.0000
	CHANNELS 6 Xposition Yposition Zposition Zrotation Xrotation Yrotation
	JOINT Spine1
	{
		OFFSET -0.0137 5.0038 -0.0537
		CHANNELS 3 Zrotation Xrotation Yrotation
		JOINT Spine2
		{
			OFFSET -0.0000 7.1253 -0.0298
			CHANNELS 3 Zrotation Xrotation Yrotation
			JOINT Chest
			{
				OFFSET -0.0000 7.5501 -0.8160
				CHANNELS 3 Zrotation Xrotation Yrotation
				JOINT Neck1
				{
					OFFSET -0.1817 26.3113 -0.5533
					CHANNELS 3 Zrotation Xrotation Yrotation
					JOINT Neck2
					{
						OFFSET -0.0000 7.7094 2.3026
						CHANNELS 3 Zrotation Xrotation Yrotation
						JOINT Head
						{
							OFFSET -0.0000 6.1289 1.9537
							CHANNELS 3 Zrotation Xrotation Yrotation
							JOINT Jaw
							{
								OFFSET 0.0026 0.4756 3.0949
								CHANNELS 3 Zrotation Xrotation Yrotation
								End Site
								{
									OFFSET 0.0 1.0 0.0
								}
							}
							JOINT LeftEye
							{
								OFFSET 3.2064 5.3802 7.5869
								CHANNELS 3 Zrotation Xrotation Yrotation
								End Site
								{
									OFFSET 0.0 1.0 0.0
								}
							}
							JOINT RightEye
							{
								OFFSET -3.2224 5.3619 7.5582
								CHANNELS 3 Zrotation Xrotation Yrotation
								End Site
								{
									OFFSET 0.0 1.0 0.0
								}
							}
						}
					}
				}
				JOINT LeftShoulder
				{
					OFFSET 1.6217 23.2372 5.1134
					CHANNELS 3 Zrotation Xrotation Yrotation
					JOINT LeftArm
					{
						OFFSET 14.9198 0.0000 -5.5023
						CHANNELS 3 Zrotation Xrotation Yrotation
						JOINT LeftForeArm
						{
							OFFSET 28.7393 0.0000 -0.0026
							CHANNELS 3 Zrotation Xrotation Yrotation
							JOINT LeftHand
							{
								OFFSET 27.0940 -0.0000 0.0026
								CHANNELS 3 Zrotation Xrotation Yrotation
								JOINT LeftHandThumbEnd
								{
									OFFSET 12.2686 -3.2202 4.8331
									CHANNELS 3 Zrotation Xrotation Yrotation
									End Site
									{
										OFFSET 0.0 1.0 0.0
									}
								}
								JOINT LeftHandMiddleEnd
								{
									OFFSET 19.0120 -0.3129 -0.0340
									CHANNELS 3 Zrotation Xrotation Yrotation
									End Site
									{
										OFFSET 0.0 1.0 0.0
									}
								}
							}
						}
					}
				}
				JOINT RightShoulder
				{
					OFFSET -1.3801 23.1803 5.2142
					CHANNELS 3 Zrotation Xrotation Yrotation
					JOINT RightArm
					{
						OFFSET -15.0372 0.0000 -5.5456
						CHANNELS 3 Zrotation Xrotation Yrotation
						JOINT RightForeArm
						{
							OFFSET -28.7366 0.0000 -0.0026
							CHANNELS 3 Zrotation Xrotation Yrotation
							JOINT RightHand
							{
								OFFSET -27.1336 -0.0000 0.0026
								CHANNELS 3 Zrotation Xrotation Yrotation
								JOINT RightHandThumbEnd
								{
									OFFSET -12.2642 -3.2115 4.8040
									CHANNELS 3 Zrotation Xrotation Yrotation
									End Site
									{
										OFFSET 0.0 1.0 0.0
									}
								}
								JOINT RightHandMiddleEnd
								{
									OFFSET -19.0006 -0.3066 -0.0316
									CHANNELS 3 Zrotation Xrotation Yrotation
									End Site
									{
										OFFSET 0.0 1.0 0.0
									}
								}
							}
						}
					}
				}
			}
		}
	}
	JOINT LeftLeg
	{
		OFFSET 10.0432 -8.4345 2.5957
		CHANNELS 3 Zrotation Xrotation Yrotation
		JOINT LeftShin
		{
			OFFSET -0.0000 -43.2218 -0.8029
			CHANNELS 3 Zrotation Xrotation Yrotation
			JOINT LeftFoot
			{
				OFFSET 0.0000 -42.1551 -3.4815
				CHANNELS 3 Zrotation Xrotation Yrotation
				JOINT LeftToeBase
				{
					OFFSET 0.0000 -5.0595 13.2315
					CHANNELS 3 Zrotation Xrotation Yrotation
					End Site
					{
						OFFSET 0.0 1.0 0.0
					}
				}
			}
		}
	}
	JOINT RightLeg
	{
		OFFSET -10.0473 -8.2953 2.6203
		CHANNELS 3 Zrotation Xrotation Yrotation
		JOINT RightShin
		{
			OFFSET 0.0000 -43.3622 -0.8056
			CHANNELS 3 Zrotation Xrotation Yrotation
			JOINT RightFoot
			{
				OFFSET 0.0000 -42.1174 -3.4784
				CHANNELS 3 Zrotation Xrotation Yrotation
				JOINT RightToeBase
				{
					OFFSET -0.0000 -5.0796 13.2842
					CHANNELS 3 Zrotation Xrotation Yrotation
					End Site
					{
						OFFSET 0.0 1.0 0.0
					}
				}
			}
		}
	}
}
MOTION
Frames: 13
Frame Time: 0.033333
-4.2654 100.6897 3.8286 0.4595 1.1847 -0.1811 -0.7190 -2.8633 -0.0989 -0.7879 -5.4711 -0.3315 -1.4259 9.8726 -2.3998 4.4793 -1.7797 1.2259 -0.6877 -3.6491 0.4765 0.6029 -13.6980 0.2813 -0.0116 0.0497 -0.0645 0.6598 -10.5473 -3.9263 -0.6823 -10.5964 3.8071 -19.7887 9.1592 -8.4678 -55.4112 12.4497 -4.3817 -0.0620 0.2346 -42.2612 3.3409 -5.2811 2.6846 -15.5979 10.7681 15.8633 -60.1223 1.4387 2.4002 23.6170 8.3464 10.4007 52.5870 10.4029 3.2115 0.0552 0.2113 36.5436 -0.6038 7.6522 2.5042 15.4738 7.2275 -16.2138 49.9966 -3.6783 -5.0714 3.4069 -1.3532 2.3751 0.0417 1.8082 -0.0115 -5.3007 -0.4184 6.6785 1.6550 -3.3471 -2.0075 -4.0882 -1.0601 -5.9412 -0.0375 1.8021 -0.0657 5.0234 -1.9352 -7.2752 -1.4201 -2.9121 1.1143
-4.2009 100.6993 3.9712 0.4655 1.3024 -0.3089 -0.7114 -2.8571 -0.1025 -0.7761 -5.4483 -0.2623 -1.4008 9.8229 -2.4437 4.4547 -1.8357 1.2773 -0.6951 -3.6199 0.5013 0.5667 -13.7729 0.2558 -0.0131 0.0508 -0.0558 0.6528 -10.5219 -3.9138 -0.6776 -10.5679 3.8129 -19.9019 9.1482 -8.4719 -55.4150 12.3844 -4.2998 -0.1475 0.1364 -42.1268 3.2917 -5.2497 2.5894 -15.5954 10.7514 15.8074 -60.1087 1.4853 2.3687 23.6003 8.3265 10.4640 52.5047 10.2558 3.2295 -0.0125 0.2384 36.3846 -0.5294 7.1886 2.5919 15.5159 7.2280 -16.2191 50.0970 -3.6683 -5.0667 3.3554 -1.3758 2.4085 0.0261 1.7643 -0.0634 -5.4039 -0.5180 6.8079 1.6559 -3.4292 -2.0378 -4.1597 -1.1339 -5.8669 -0.0372 1.7486 -0.0609 5.0872 -2.0022 -7.1330 -1.4275 -2.9925 1.1075
-4.0361 100.7102 4.1242 0.4905 1.4475 -0.4883 -0.6946 -2.8661 -0.1288 -0.7592 -5.4571 -0.2182 -1.3566 9.8296 -2.4242 4.3671 -1.8877 1.3374 -0.6885 -3.6370 0.4987 0.5246 -13.8134 0.2425 -0.0161 0.0496 -0.0660 0.6391 -10.5217 -3.9202 -0.6704 -10.5663 3.7991 -20.0228 9.1580 -8.4625 -55.4090 12.3059 -4.1842 -0.2295 0.0411 -42.0682 3.2126 -5.3464 2.5372 -15.5967 10.7547 15.8224 -60.1314 1.4932 2.4201 23.5880 8.3044 10.5423 52.3645 10.1011 3.2435 -0.0551 0.2041 36.2991 -0.4902 6.8193 2.6169 15.5489 7.2390 -16.2239 50.1196 -3.6654 -5.0939 3.2458 -1.4229 2.4141 0.0240 1.7503 -0.0879 -5.4387 -0.6447 6.9385 1.6568 -3.4736 -2.0508 -4.2752 -1.2701 -5.8013 -0.0354 1.7432 -0.0511 5.2291 -2.0569 -6.9807 -1.4284 -3.0079 1.0968
-3.8341 100.7132 4.2014 0.5216 1.5780 -0.6922 -0.6718 -2.8566 -0.1508 -0.7366 -5.4733 -0.2109 -1.2906 9.8598 -2.3620 4.2298 -1.8997 1.4043 -0.6692 -3.6596 0.5260 0.4967 -13.8937 0.2660 -0.0172 0.0443 -0.0749 0.6295 -10.5284 -3.9269 -0.6632 -10.5702 3.7873 -20.1709 9.1879 -8.4252 -55.4098 12.1834 -4.1125 -0.2714 -0.0148 -41.9485 3.1834 -5.4088 2.4148 -15.6009 10.7604 15.8243 -60.1614 1.4930 2.4633 23.5623 8.2888 10.6579 52.2057 9.9891 3.2637 -0.0906 0.1957 36.3388 -0.4445 6.4608 2.6056 15.5758 7.2504 -16.2124 50.1026 -3.6462 -5.1055 3.0997 -1.4422 2.4229 0.0275 1.7369 -0.1001 -5.4164 -0.7987 7.1157 1.6586 -3.5026 -2.0545 -4.4422 -1.3818 -5.7385 -0.0311 1.7261 -0.0560 5.4297 -2.0903 -6.7661 -1.4291 -3.0221 1.0844
-3.6203 100.7118 4.2470 0.5535 1.6957 -0.8968 -0.6400 -2.8442 -0.1422 -0.7007 -5.4886 -0.2247 -1.2247 9.9084 -2.3037 4.0749 -1.8961 1.4647 -0.6329 -3.6671 0.5683 0.4847 -14.0288 0.3019 -0.0164 0.0421 -0.0764 0.6279 -10.5293 -3.9286 -0.6597 -10.5681 3.7849 -20.3535 9.2137 -8.3670 -55.3863 12.0348 -4.0669 -0.3029 -0.0298 -41.7802 3.1903 -5.4709 2.2805 -15.5865 10.7514 15.7913 -60.1655 1.5010 2.4386 23.5083 8.2838 10.7800 52.0455 9.9044 3.3170 -0.1041 0.1959 36.4563 -0.3846 6.1507 2.5993 15.5727 7.2705 -16.2230 50.0922 -3.6402 -5.1181 2.9203 -1.4341 2.3963 0.0318 1.7280 -0.0930 -5.3416 -0.9498 7.3250 1.6574 -3.4980 -2.0551 -4.6375 -1.4622 -5.7041 -0.0272 1.6958 -0.0576 5.6742 -2.1081 -6.5153 -1.4300 -3.0176 1.0738
-3.3503 100.7023 4.3494 0.5840 1.8355 -1.1176 -0.5986 -2.8477 -0.1265 -0.6589 -5.4923 -0.2252 -1.1473 9.9460 -2.2726 3.9056 -1.8637 1.5304 -0.5827 -3.6694 0.6304 0.4911 -14.1896 0.3504 -0.0154 0.0429 -0.0753 0.6266 -10.5197 -3.9253 -0.6561 -10.5565 3.7832 -20.5633 9.2232 -8.2786 -55.3570 11.9115 -4.0785 -0.2998 -0.0287 -41.5546 3.1523 -5.4895 2.1329 -15.5567 10.7560 15.7590 -60.1532 1.5275 2.4059 23.4493 8.2916 10.9157 51.8614 9.8770 3.4147 -0.1492 0.2158 36.6302 -0.3394 5.8132 2.5893 15.5862 7.2832 -16.2264 50.1154 -3.6354 -5.1047 2.7030 -1.4260 2.3565 0.0346 1.7214 -0.0803 -5.2203 -1.1015 7.5515 1.6595 -3.5021 -2.0549 -4.8580 -1.5479 -5.6658 -0.0173 1.6520 -0.0548 5.9490 -2.1060 -6.2559 -1.4325 -3.0088 1.0648
-3.0482 100.7012 4.4446 0.6269 1.9836 -1.3614 -0.5476 -2.8624 -0.1074 -0.6163 -5.5059 -0.2215 -1.0556 10.0001 -2.2279 3.7353 -1.8223 1.5769 -0.5362 -3.6744 0.7264 0.5147 -14.3711 0.4054 -0.0145 0.0451 -0.0724 0.6248 -10.5227 -3.9213 -0.6527 -10.5554 3.7844 -20.8105 9.1998 -8.1839 -55.3057 11.8929 -4.1843 -0.2358 -0.0190 -41.3423 3.0881 -5.6134 1.9799 -15.5486 10.7825 15.7551 -60.2089 1.5588 2.3889 23.3813 8.2991 11.0508 51.6439 9.9163 3.5203 -0.1750 0.2006 36.8514 -0.3397 5.6119 2.6080 15.5901 7.2989 -16.2399 50.1253 -3.6305 -5.1039 2.4343 -1.4084 2.3082 0.0332 1.7247 -0.0598 -5.0684 -1.2752 7.8031 1.6602 -3.5340 -2.0593 -5.1261 -1.6270 -5.6460 -0.0100 1.6123 -0.0544 6.2639 -2.1156 -5.9615 -1.4328 -3.0534 1.0471
-2.6968 100.6842 4.5732 0.6817 2.1379 -1.5886 -0.4943 -2.8773 -0.0912 -0.5716 -5.5028 -0.1892 -0.9480 10.0359 -2.2000 3.5858 -1.7639 1.5871 -0.4927 -3.6706 0.8320 0.5369 -14.5477 0.4712 -0.0151 0.0495 -0.0710 0.6169 -10.5144 -3.9173 -0.6459 -10.5419 3.7834 -21.0612 9.1594 -8.0817 -55.2250 11.8785 -4.3320 -0.1978 0.0024 -41.1549 3.0264 -5.7354 1.8179 -15.5431 10.7672 15.7266 -60.2311 1.5633 2.4009 23.3213 8.2946 11.1819 51.4304 9.9789 3.6121 -0.1854 0.1838 37.0293 -0.3671 5.5007 2.6300 15.5975 7.3041 -16.2346 50.1386 -3.6127 -5.0953 2.1211 -1.3829 2.2377 0.0293 1.7372 -0.0571 -4.8841 -1.4695 8.0847 1.6604 -3.5647 -2.0664 -5.4484 -1.6965 -5.6366 -0.0024 1.5751 -0.0494 6.5893 -2.1435 -5.6852 -1.4322 -3.1341 1.0337
-2.2751 100.6741 4.7457 0.7408 2.2818 -1.7730 -0.4436 -2.8751 -0.0767 -0.5311 -5.4940 -0.1658 -0.8151 10.0741 -2.1721 3.4875 -1.7008 1.6044 -0.4571 -3.6642 0.9194 0.5475 -14.7437 0.5064 -0.0170 0.0560 -0.0716 0.6083 -10.5021 -3.9151 -0.6410 -10.5279 3.7813 -21.2966 9.1397 -7.9555 -55.1175 11.8213 -4.5131 -0.1880 -0.0126 -41.0065 2.9764 -5.8437 1.6104 -15.4969 10.7725 15.7139 -60.2290 1.5809 2.4143 23.2587 8.2817 11.3343 51.2126 10.0666 3.7034 -0.1821 0.1664 37.1541 -0.4069 5.4681 2.6579 15.5898 7.3097 -16.2232 50.1301 -3.6058 -5.1099 1.7554 -1.3209 2.1291 0.0251 1.7391 -0.0565 -4.6608 -1.7202 8.3749 1.6611 -3.5850 -2.0698 -5.8186 -1.7302 -5.6169 0.0030 1.5337 -0.0474 6.9452 -2.2131 -5.4597 -1.4310 -3.2260 1.0180
-1.7932 100.6713 4.9934 0.8102 2.4083 -1.9169 -0.4022 -2.8486 -0.0774 -0.4907 -5.4814 -0.1526 -0.6629 10.1140 -2.1291 3.4161 -1.6220 1.6041 -0.4157 -3.6628 0.9983 0.5548 -14.9564 0.5266 -0.0174 0.0563 -0.0696 0.6008 -10.4899 -3.9122 -0.6342 -10.5171 3.7829 -21.4690 9.1695 -7.8320 -55.0437 11.6732 -4.7407 -0.1799 -0.0253 -40.9107 2.9357 -5.8917 1.3870 -15.4424 10.7755 15.7002 -60.2434 1.5927 2.4098 23.1557 8.2638 11.4681 51.0272 10.1962 3.8003 -0.1634 0.1596 37.2409 -0.4459 5.3844 2.7435 15.5757 7.2964 -16.1940 50.0988 -3.6037 -5.1156 1.3353 -1.2376 1.9853 0.0292 1.7576 -0.0609 -4.3957 -1.9958 8.6338 1.6639 -3.6028 -2.0709 -6.2360 -1.7472 -5.5867 0.0059 1.5417 -0.0491 7.3367 -2.2993 -5.2869 -1.4306 -3.3216 1.0107
-1.2137 100.6583 5.3024 0.9032 2.5176 -2.0326 -0.3730 -2.7941 -0.0731 -0.4559 -5.4650 -0.1426 -0.4928 10.1668 -2.0822 3.3822 -1.5363 1.5902 -0.3758 -3.6650 1.1036 0.5432 -15.2088 0.5092 -0.0135 0.0535 -0.0621 0.5950 -10.4848 -3.9076 -0.6202 -10.5137 3.7918 -21.5302 9.2269 -7.7072 -55.0412 11.4169 -5.0047 -0.1853 -0.0567 -40.8445 2.9240 -5.8544 1.1689 -15.3829 10.7735 15.6723 -60.2365 1.5936 2.3904 22.9821 8.2548 11.5812 50.8731 10.3701 3.9054 -0.1289 0.1529 37.3144 -0.4679 5.2339 2.8241 15.5583 7.2875 -16.1752 50.0621 -3.6062 -5.1289 0.8482 -1.1369 1.8306 0.0283 1.8122 -0.0652 -4.0698 -2.2835 8.8824 1.6672 -3.6287 -2.0618 -6.7309 -1.7591 -5.5754 0.0003 1.6115 -0.0440 7.7809 -2.4182 -5.1642 -1.4299 -3.4314 1.0156
-0.5561 100.6288 5.6394 1.0518 2.5951 -2.1252 -0.3892 -2.7029 -0.0737 -0.4342 -5.4374 -0.1151 -0.3021 10.2223 -2.0248 3.4057 -1.4102 1.5721 -0.3538 -3.6823 1.1994 0.5112 -15.5578 0.4606 -0.0076 0.0521 -0.0545 0.5879 -10.4721 -3.9024 -0.6011 -10.5074 3.7989 -21.4190 9.3140 -7.6039 -55.1782 11.0535 -5.3462 -0.1943 -0.0967 -40.7341 2.9509 -5.7832 0.9747 -15.3150 10.7831 15.6501 -60.2164 1.6018 2.3950 22.7092 8.2748 11.6644 50.8029 10.5441 4.0373 -0.0918 0.1395 37.3032 -0.4528 5.2545 2.8591 15.5574 7.2581 -16.1685 49.9671 -3.6397 -5.1270 0.2490 -1.0005 1.6329 0.0306 1.9018 -0.0836 -3.6759 -2.6334 9.1667 1.6699 -3.6891 -2.0592 -7.3279 -1.8522 -5.5339 -0.0132 1.9324 -0.0448 8.2496 -2.6018 -5.0772 -1.4330 -3.5425 1.0204
0.2067 100.5630 5.9799 1.3331 2.6001 -2.2444 -0.5299 -2.5255 -0.0520 -0.4335 -5.3863 -0.0989 -0.0871 10.2734 -1.9340 3.4789 -1.2463 1.5485 -0.3299 -3.7028 1.2717 0.4826 -16.0496 0.3968 -0.0046 0.0535 -0.0545 0.5770 -10.4642 -3.9068 -0.5840 -10.5058 3.8022 -21.0955 9.4921 -7.5534 -55.4979 10.4855 -5.6995 -0.2420 -0.1434 -40.5993 3.0317 -5.5130 0.8390 -15.2661 10.8026 15.6549 -60.1863 1.5943 2.4174 22.2905 8.3548 11.7259 50.8385 10.6679 4.2593 -0.0773 0.1144 37.1965 -0.4767 5.5168 2.7366 15.5496 7.2353 -16.1461 49.8870 -3.6565 -5.1197 -0.5388 -0.7704 1.3925 0.0334 2.0056 -0.1058 -3.2030 -3.0329 9.5477 1.6759 -3.7776 -2.0577 -8.1087 -2.4573 -5.3140 -0.0408 3.4331 -0.0347 8.7412 -3.2392 -5.0320 -1.4367 -3.6724 1.0208
